<svg aria-hidden="true" style="position: absolute; width: 0; height: 0; overflow: hidden;" version="1.1" xmlns="http://www.w3.org/2000/svg" xmlns:xlink="http://www.w3.org/1999/xlink">
<defs>
<symbol id="icon-apartment" viewBox="0 0 24 24">
<path d="M18.984 15v-2.016h-1.969v2.016h1.969zM18.984 18.984v-1.969h-1.969v1.969h1.969zM15 6.984v-1.969h-2.016v1.969h2.016zM15 11.016v-2.016h-2.016v2.016h2.016zM15 15v-2.016h-2.016v2.016h2.016zM11.016 6.984v-1.969h-2.016v1.969h2.016zM11.016 11.016v-2.016h-2.016v2.016h2.016zM11.016 15v-2.016h-2.016v2.016h2.016zM6.984 11.016v-2.016h-1.969v2.016h1.969zM6.984 15v-2.016h-1.969v2.016h1.969zM6.984 18.984v-1.969h-1.969v1.969h1.969zM17.016 11.016h3.984v9.984h-8.016v-3.984h-1.969v3.984h-8.016v-14.016h3.984v-3.984h10.031v8.016z"></path>
</symbol>
<symbol id="icon-home3" viewBox="0 0 32 32">
<path d="M32 19l-6-6v-9h-4v5l-6-6-16 16v1h4v10h10v-6h4v6h10v-10h4z"></path>
</symbol>
<symbol id="icon-file-text2" viewBox="0 0 32 32">
<path d="M28.681 7.159c-0.694-0.947-1.662-2.053-2.724-3.116s-2.169-2.030-3.116-2.724c-1.612-1.182-2.393-1.319-2.841-1.319h-15.5c-1.378 0-2.5 1.121-2.5 2.5v27c0 1.378 1.122 2.5 2.5 2.5h23c1.378 0 2.5-1.122 2.5-2.5v-19.5c0-0.448-0.137-1.23-1.319-2.841zM24.543 5.457c0.959 0.959 1.712 1.825 2.268 2.543h-4.811v-4.811c0.718 0.556 1.584 1.309 2.543 2.268zM28 29.5c0 0.271-0.229 0.5-0.5 0.5h-23c-0.271 0-0.5-0.229-0.5-0.5v-27c0-0.271 0.229-0.5 0.5-0.5 0 0 15.499-0 15.5 0v7c0 0.552 0.448 1 1 1h7v19.5z"></path>
<path d="M23 26h-14c-0.552 0-1-0.448-1-1s0.448-1 1-1h14c0.552 0 1 0.448 1 1s-0.448 1-1 1z"></path>
<path d="M23 22h-14c-0.552 0-1-0.448-1-1s0.448-1 1-1h14c0.552 0 1 0.448 1 1s-0.448 1-1 1z"></path>
<path d="M23 18h-14c-0.552 0-1-0.448-1-1s0.448-1 1-1h14c0.552 0 1 0.448 1 1s-0.448 1-1 1z"></path>
</symbol>
<symbol id="icon-calendar" viewBox="0 0 32 32">
<path d="M10 12h4v4h-4zM16 12h4v4h-4zM22 12h4v4h-4zM4 24h4v4h-4zM10 24h4v4h-4zM16 24h4v4h-4zM10 18h4v4h-4zM16 18h4v4h-4zM22 18h4v4h-4zM4 18h4v4h-4zM26 0v2h-4v-2h-14v2h-4v-2h-4v32h30v-32h-4zM28 30h-26v-22h26v22z"></path>
</symbol>
<symbol id="icon-bubbles" viewBox="0 0 36 32">
<path d="M34 28.161c0 1.422 0.813 2.653 2 3.256v0.498c-0.332 0.045-0.671 0.070-1.016 0.070-2.125 0-4.042-0.892-5.398-2.321-0.819 0.218-1.688 0.336-2.587 0.336-4.971 0-9-3.582-9-8s4.029-8 9-8c4.971 0 9 3.582 9 8 0 1.73-0.618 3.331-1.667 4.64-0.213 0.463-0.333 0.979-0.333 1.522zM16 0c8.702 0 15.781 5.644 15.995 12.672-1.537-0.685-3.237-1.047-4.995-1.047-2.986 0-5.807 1.045-7.942 2.943-2.214 1.968-3.433 4.607-3.433 7.432 0 1.396 0.298 2.747 0.867 3.993-0.163 0.004-0.327 0.007-0.492 0.007-0.849 0-1.682-0.054-2.495-0.158-3.437 3.437-7.539 4.053-11.505 4.144v-0.841c2.142-1.049 4-2.961 4-5.145 0-0.305-0.024-0.604-0.068-0.897-3.619-2.383-5.932-6.024-5.932-10.103 0-7.18 7.163-13 16-13z"></path>
</symbol>
<symbol id="icon-users" viewBox="0 0 36 32">
<path d="M24 24.082v-1.649c2.203-1.241 4-4.337 4-7.432 0-4.971 0-9-6-9s-6 4.029-6 9c0 3.096 1.797 6.191 4 7.432v1.649c-6.784 0.555-12 3.888-12 7.918h28c0-4.030-5.216-7.364-12-7.918z"></path>
<path d="M10.225 24.854c1.728-1.13 3.877-1.989 6.243-2.513-0.47-0.556-0.897-1.176-1.265-1.844-0.95-1.726-1.453-3.627-1.453-5.497 0-2.689 0-5.228 0.956-7.305 0.928-2.016 2.598-3.265 4.976-3.734-0.529-2.39-1.936-3.961-5.682-3.961-6 0-6 4.029-6 9 0 3.096 1.797 6.191 4 7.432v1.649c-6.784 0.555-12 3.888-12 7.918h8.719c0.454-0.403 0.956-0.787 1.506-1.146z"></path>
</symbol>
<symbol id="icon-user-plus" viewBox="0 0 32 32">
<path d="M12 23c0-4.726 2.996-8.765 7.189-10.319 0.509-1.142 0.811-2.411 0.811-3.681 0-4.971 0-9-6-9s-6 4.029-6 9c0 3.096 1.797 6.191 4 7.432v1.649c-6.784 0.555-12 3.888-12 7.918h12.416c-0.271-0.954-0.416-1.96-0.416-3z"></path>
<path d="M23 14c-4.971 0-9 4.029-9 9s4.029 9 9 9c4.971 0 9-4.029 9-9s-4.029-9-9-9zM28 24h-4v4h-2v-4h-4v-2h4v-4h2v4h4v2z"></path>
</symbol>
<symbol id="icon-user-minus" viewBox="0 0 32 32">
<path d="M12 23c0-4.726 2.996-8.765 7.189-10.319 0.509-1.142 0.811-2.411 0.811-3.681 0-4.971 0-9-6-9s-6 4.029-6 9c0 3.096 1.797 6.191 4 7.432v1.649c-6.784 0.555-12 3.888-12 7.918h12.416c-0.271-0.954-0.416-1.96-0.416-3z"></path>
<path d="M23 14c-4.971 0-9 4.029-9 9s4.029 9 9 9c4.971 0 9-4.029 9-9s-4.029-9-9-9zM28 24h-10v-2h10v2z"></path>
</symbol>
<symbol id="icon-user-check" viewBox="0 0 32 32">
<path d="M30 19l-9 9-3-3-2 2 5 5 11-11z"></path>
<path d="M14 24h10v-3.598c-2.101-1.225-4.885-2.066-8-2.321v-1.649c2.203-1.242 4-4.337 4-7.432 0-4.971 0-9-6-9s-6 4.029-6 9c0 3.096 1.797 6.191 4 7.432v1.649c-6.784 0.555-12 3.888-12 7.918h14v-2z"></path>
</symbol>
<symbol id="icon-aid-kit" viewBox="0 0 32 32">
<path d="M28 8h-6v-4c0-1.1-0.9-2-2-2h-8c-1.1 0-2 0.9-2 2v4h-6c-2.2 0-4 1.8-4 4v16c0 2.2 1.8 4 4 4h24c2.2 0 4-1.8 4-4v-16c0-2.2-1.8-4-4-4zM12 4h8v4h-8v-4zM24 22h-6v6h-4v-6h-6v-4h6v-6h4v6h6v4z"></path>
</symbol>
<symbol id="icon-lab" viewBox="0 0 32 32">
<path d="M29.884 25.14l-9.884-16.47v-6.671h1c0.55 0 1-0.45 1-1s-0.45-1-1-1h-10c-0.55 0-1 0.45-1 1s0.45 1 1 1h1v6.671l-9.884 16.47c-2.264 3.773-0.516 6.86 3.884 6.86h20c4.4 0 6.148-3.087 3.884-6.86zM7.532 20l6.468-10.779v-7.221h4v7.221l6.468 10.779h-16.935z"></path>
</symbol>
<symbol id="icon-bin2" viewBox="0 0 32 32">
<path d="M6 32h20l2-22h-24zM20 4v-4h-8v4h-10v6l2-2h24l2 2v-6h-10zM18 4h-4v-2h4v2z"></path>
</symbol>
<symbol id="icon-earth" viewBox="0 0 32 32">
<path d="M16 0c-8.837 0-16 7.163-16 16s7.163 16 16 16 16-7.163 16-16-7.163-16-16-16zM16 30c-1.967 0-3.84-0.407-5.538-1.139l7.286-8.197c0.163-0.183 0.253-0.419 0.253-0.664v-3c0-0.552-0.448-1-1-1-3.531 0-7.256-3.671-7.293-3.707-0.188-0.188-0.442-0.293-0.707-0.293h-4c-0.552 0-1 0.448-1 1v6c0 0.379 0.214 0.725 0.553 0.894l3.447 1.724v5.871c-3.627-2.53-6-6.732-6-11.489 0-2.147 0.484-4.181 1.348-6h3.652c0.265 0 0.52-0.105 0.707-0.293l4-4c0.188-0.188 0.293-0.442 0.293-0.707v-2.419c1.268-0.377 2.61-0.581 4-0.581 2.2 0 4.281 0.508 6.134 1.412-0.13 0.109-0.256 0.224-0.376 0.345-1.133 1.133-1.757 2.64-1.757 4.243s0.624 3.109 1.757 4.243c1.139 1.139 2.663 1.758 4.239 1.758 0.099 0 0.198-0.002 0.297-0.007 0.432 1.619 1.211 5.833-0.263 11.635-0.014 0.055-0.022 0.109-0.026 0.163-2.541 2.596-6.084 4.208-10.004 4.208z"></path>
</symbol>
<symbol id="icon-blood" viewBox="0 0 64 64">
<path d="M11,41.265C11.052,53.27,20.401,63,32,63
		s21-9.73,21-21.735C53,25.729,32.035,1,32.035,1S10.931,25.729,11,41.265z"></path>
</symbol>
<symbol id="icon-delete" viewBox="0 0 24 24">
<path d="M20 2h-4v-.85C16 .52 15.48 0 14.85 0h-5.7C8.52 0 8 .52 8 1.15V2H4c-1.1 0-2 .9-2 2 0 .74.4 1.38 1 1.73v14.02C3 22.09 4.91 24 7.25 24h9.5c2.34 0 4.25-1.91 4.25-4.25V5.73c.6-.35 1-.99 1-1.73 0-1.1-.9-2-2-2zm-1 17.75c0 1.24-1.01 2.25-2.25 2.25h-9.5C6.01 22 5 20.99 5 19.75V6h14v13.75z"></path>
<path d="M8 20.022c-.553 0-1-.447-1-1v-10c0-.553.447-1 1-1s1 .447 1 1v10c0 .553-.447 1-1 1zm8 0c-.553 0-1-.447-1-1v-10c0-.553.447-1 1-1s1 .447 1 1v10c0 .553-.447 1-1 1zm-4 0c-.553 0-1-.447-1-1v-10c0-.553.447-1 1-1s1 .447 1 1v10c0 .553-.447 1-1 1z"></path>
</symbol>
<symbol id="icon-plane" viewBox="0 0 512 512">
<path class="st0" d="M507.906,327.797l-52.781-39.438v-43.094c0-5.047-4.094-9.125-9.125-9.125c-5.047,0-9.125,4.078-9.125,9.125 v29.453l-50.453-37.703v-29.313c0-5.031-4.078-9.141-9.125-9.141s-9.125,4.109-9.125,9.141v15.672l-75.953-56.75 c0,0,0-72.453,0-90.969S272.094,19.313,256,19.313s-36.219,37.828-36.219,56.344s0,90.969,0,90.969l-75.953,56.75v-15.672 c0-5.031-4.078-9.141-9.125-9.141s-9.125,4.109-9.125,9.141v29.313l-50.453,37.688v-29.438c0-5.047-4.094-9.125-9.125-9.125 s-9.125,4.078-9.125,9.125v43.094L4.094,327.797C1.516,329.734,0,332.75,0,335.953v25.063c0,3.469,1.75,6.672,4.656,8.563 c2.875,1.875,6.547,2.156,9.688,0.75l42.531-19.672v13.766c0,5.031,4.094,9.109,9.125,9.109s9.125-4.078,9.125-9.109v-22.219 l50.453-23.328v18.703c0,5.047,4.078,9.125,9.125,9.125s9.125-4.078,9.125-9.125v-27.156l82.828-38.328l7.219,127.984 c0,10.266-3.922,18.281-12.719,24.5c-18.063,12.797-49.594,33.453-49.594,33.453c-4.031,2.875-5.75,8.047-4.25,12.766 c1.516,4.734,5.906,7.938,10.875,7.938l64.406-10.594v11.141c0,7.406,6,13.406,13.406,13.406s13.406-6,13.406-13.406v-11.141 l64.406,10.594c4.969,0,9.344-3.203,10.875-7.938c1.5-4.719-0.219-9.891-4.25-12.766c0,0-31.547-20.656-49.609-33.453 c-8.781-6.219-12.703-14.234-12.703-24.5l7.219-127.984l82.828,38.328v27.156c0,5.047,4.078,9.125,9.125,9.125 s9.125-4.078,9.125-9.125v-18.703l50.453,23.328v22.219c0,5.031,4.078,9.109,9.125,9.109c5.031,0,9.125-4.078,9.125-9.109v-13.766 l42.516,19.672c3.156,1.406,6.813,1.125,9.703-0.75c2.906-1.891,4.656-5.094,4.656-8.563v-25.063 C512,332.75,510.484,329.734,507.906,327.797z M234.531,74.047c0-11.844,9.609-21.453,21.469-21.453 c11.844,0,21.469,9.609,21.469,21.453H234.531z"/>
</symbol>
<symbol id="icon-treatment" viewBox="0 0 512 512">
<path class="st0" d="M408.431,235.372c21.927,0,39.698-17.778,39.698-39.702c0-21.923-17.771-39.694-39.698-39.694 c-21.923,0-39.698,17.771-39.698,39.694C368.733,217.594,386.508,235.372,408.431,235.372z"/> <path class="st0" d="M507.358,273.431l-11.014-12.476c-6.772-7.675-18.487-8.403-26.162-1.619l-66.462,58.549H54.49 c-10.234,0-18.536,8.298-18.536,18.532v16.636c0,10.241,8.302,18.539,18.536,18.539h349.517c12.912,0,25.377-4.72,35.05-13.261 l66.678-58.743C513.406,292.82,514.134,281.097,507.358,273.431z"/> <path class="st0" d="M58.643,86.311h7.962c9.873,0,16.888,1.782,21.968,4.388c3.818,1.984,6.643,4.42,8.982,7.383 c3.469,4.413,5.8,10.209,7.189,16.969c1.396,6.744,1.83,14.338,1.821,21.875h18.681c0-7.294-0.336-15.042-1.66-22.757 c-0.996-5.781-2.542-11.561-5.023-17.083c-1.858-4.137-4.246-8.128-7.307-11.763c-4.57-5.456-10.67-10.039-18.155-13.075 c-7.497-3.052-16.277-4.622-26.498-4.622h-7.962c-10.063,0-19.03,1.748-26.761,5.286c-5.801,2.64-10.853,6.291-15.022,10.703 c-6.266,6.622-10.484,14.832-13.115,23.859C1.109,116.501,0.008,126.402,0,136.927v307.447h18.681V136.927 c0-8.169,0.786-15.568,2.368-21.891c1.182-4.761,2.805-8.89,4.821-12.396c3.044-5.246,6.853-9.075,11.998-11.86 C43.014,88.027,49.717,86.311,58.643,86.311z"/> <rect x="64.84" y="386.772" class="st0" width="39.698" height="57.602"/> <rect x="346.393" y="386.772" class="st0" width="39.698" height="57.602"/> <path class="st0" d="M74.089,179.559c0.02,13.277,10.796,24.028,24.061,24.028h0.056l70.232,1.926l13.706,0.138l21.798,46.851 L87.67,259.409c-12.055,0.186-21.68,10.103-21.502,22.158c0.182,12.055,10.103,22.231,22.158,22.053h249.522 c23.077,0,41.783-18.709,41.783-41.782s-18.706-41.783-41.783-41.783h-83.953c-1.441,0-2.866,0.073-4.274,0.227l-28.45-53.384 c-4.825-9.188-14.252-14.41-23.968-14.313l-28.764,0.631l-70.333,2.227C84.816,155.466,74.061,166.265,74.089,179.559z M143.612,161.019l17.815-0.566v37.864l-17.815-0.494V161.019z M136.609,161.238v36.391l-15.43-0.421l-10.905-35.144 L136.609,161.238z M98.228,162.445h0.097l8.306-0.259l-3.331,1.036l10.48,33.776l-15.382-0.421h-0.15H98.15 c-9.384,0-17.038-7.642-17.058-17.034c-0.008-4.55,1.761-8.841,4.975-12.07c3.214-3.231,7.497-5.012,12.054-5.028H98.228z"/>
</symbol>
<symbol id="icon-statistics" viewBox="0 0 50 50">
	<path fill="#FFFFFF" d="M9.037,40.763h4.286c0.552,0,1-0.447,1-1v-7.314c0-0.553-0.448-1-1-1H9.037c-0.552,0-1,0.447-1,1v7.314 C8.037,40.315,8.485,40.763,9.037,40.763z M10.037,33.448h2.286v5.314h-2.286V33.448z"/> <path fill="#FFFFFF" d="M21.894,40.763c0.552,0,1-0.447,1-1v-20.64c0-0.553-0.448-1-1-1h-4.286c-0.552,0-1,0.447-1,1v20.64 c0,0.553,0.448,1,1,1H21.894z M18.608,20.123h2.286v18.64h-2.286V20.123z"/> <path fill="#FFFFFF" d="M30.465,40.763c0.552,0,1-0.447,1-1V25.96c0-0.553-0.448-1-1-1H26.18c-0.552,0-1,0.447-1,1v13.803 c0,0.553,0.448,1,1,1H30.465z M27.18,26.96h2.286v11.803H27.18V26.96z"/> <path fill="#FFFFFF" d="M33.751,9.763v30c0,0.553,0.448,1,1,1h4.286c0.552,0,1-0.447,1-1v-30c0-0.553-0.448-1-1-1h-4.286 C34.199,8.763,33.751,9.21,33.751,9.763z M35.751,10.763h2.286v28h-2.286V10.763z"/> 
</symbol>
</defs>
</svg>
